<?xml version="1.0" standalone="yes"?>
<svg xmlns="http://www.w3.org/2000/svg" viewBox="0 0 456 326" >
<!-- <svg xmlns="http://www.w3.org/2000/svg" width="456" height="326"> -->
<path fill="currentColor" stroke="currentColor" stroke-width="10" d="M293 6.61618C281.079 7.52737 270.001 14.9875 261.32 22.6981C257.115 26.4336 251.097 35.4735 244.992 35.4949C238.684 35.517 229.974 29.0072 224 26.6697C210.645 21.4442 197.284 17.9726 183 16.3277C110.05 7.92719 46.584 47.565 21.7521 116.217C17.8145 127.104 14.8769 139.545 13.2392 151C11.8516 160.705 6.75361 181.666 12.2598 190.441C16.9365 197.894 32.223 202.584 40 205.957C64.1142 216.416 88.495 225.834 114.019 232.201C123.798 234.64 147.049 233.963 154.137 241.116C157.249 244.256 154.055 253.168 153.365 257C150.589 272.424 148.734 287.562 146.478 303C145.814 307.546 143.868 323.006 152.76 320.436C157.362 319.106 155.919 311.562 156.04 308C156.465 295.504 159.645 283.316 161.194 271C163.301 254.244 164.759 249.1 176.175 239.618C178.188 237.946 177.92 234.689 176.175 232.929C170.642 227.351 151.648 228.814 144 227.718C120.147 224.297 95.3009 217.145 73 208.118C68.8124 206.422 44.6433 200.03 44.6433 195.144C44.6433 192.533 55.2601 193.995 57 193.999C70.6918 194.032 84.3739 193.347 98 192.118C142.247 188.126 187.138 184.639 228 165.449C237.697 160.895 263.814 148.062 263.359 135.07C263.199 130.504 258.549 129.887 255.395 132.074C235.925 145.573 222.683 158.231 199 165.228C155.635 178.04 110.138 183 65 183C56.9792 183 27.0694 187.391 22.2598 180.499C18.7214 175.428 21.751 165.553 22.5508 160C25.2622 141.177 30.3394 122.62 37.4978 105C44.6713 87.3431 57.518 72.1274 71.0002 59.0168C90.1343 40.4099 117.807 30.0959 144 27.236C251.031 15.5496 319.773 110.454 360.84 197C374.466 225.717 387.751 256.945 394.981 288C396.272 293.546 396.553 317.666 403.962 316.351C412.675 314.804 425.41 301.562 429.968 294.145C434.183 287.288 442.982 286.263 447.192 278.217C452.583 267.915 452.577 247.288 439.992 242.042C434.781 239.87 428.029 243.061 423.303 240.042C417.571 236.38 415.464 229.06 408.999 225.722C404.119 223.202 386.39 228.989 385.668 224.919C384.948 220.861 398.139 214.63 400.097 209.543C403.767 200.01 396.962 192.098 397.459 183.136C398.294 168.069 411.3 155.219 399.28 139.683C389.402 126.916 381.707 134.633 370.515 129.38C363.89 126.27 363.909 117.389 354.997 116.199C349.839 115.51 332.76 123.183 331.27 121.38C329.804 119.608 351.129 103.008 350.691 94.0075C349.921 78.1716 330.846 77.544 325.394 65.8741C316.693 47.2507 332.009 3.63461 293 6.61618M310 72C319.319 75.9301 333.209 82.2204 338.694 91.1389C343.528 98.9997 331.462 108.279 324.019 107.592C317.138 106.956 311.961 97.2704 308.037 92.4567C297.277 79.2548 284.925 67.2901 272 56.2399C268.318 53.0922 255.9 47.0696 258.408 40.9617C263.809 27.8061 290.207 11.4137 303.821 19.8056C319.398 29.4079 318.572 58.4861 310 72M163 107C172.251 102.146 183.746 100.838 194 99.5617C199.359 98.8948 204.623 97.3835 210 97.0291C213.592 96.7924 240.261 90.4686 225.852 85.7408C209.272 80.3007 175.264 91.7493 159 96.5882C153.491 98.2274 140.488 100.127 140.649 107.962C140.802 115.357 151.846 115.908 157 116.999C172.207 120.219 197.564 128.429 212.851 123.499C225.981 119.266 203.245 113.535 200 113.21C195.269 112.736 190.697 111.866 186 111.196C178.189 110.081 170.661 108.946 163 107M85 125C79.2771 133.68 67.1112 135.929 59.207 142.185C55.4206 145.182 54.1048 153.184 61.0889 152.432C73.119 151.137 90.8988 137.006 100.861 130.393C104.18 128.19 110.169 124.064 108.817 119.284C106.759 112.007 95.0052 114.674 90 115.544C77.7893 117.664 63.9588 113.735 52.0303 117.803C34.371 123.826 64.6055 126.302 69 126.078C74.373 125.804 79.641 125.499 85 125M351 125.914C362.4 126.841 357.918 142.239 364.496 146.953C372.303 152.547 384.989 127.182 393.642 150.217C398.655 163.561 386.628 171.053 386.101 183C385.79 190.042 391.759 195.756 390.702 202.992C390.067 207.337 386.779 211.299 382.064 211.207C374.762 211.064 372.598 197.065 370.099 192C361.427 174.428 348.408 157.064 341.368 138.922C339.117 133.122 344.572 125.391 351 125.914M423 274C422.62 278.021 422.01 282.036 421.224 286C420.3 290.652 414.387 303.873 408.163 296.387C400.708 287.421 395.596 259.713 393.795 248C392.958 242.553 394.113 235.421 401.003 235.277C410.819 235.071 412.045 247.939 419.097 252.09C425.32 255.754 433.776 246.739 438.499 255.148C445.883 268.297 436.095 281.229 423 274z"/>
</svg>
